<?xml version="1.0" standalone="no"?>
<!DOCTYPE svg PUBLIC "-//W3C//DTD SVG 20010904//EN"
 "http://www.w3.org/TR/2001/REC-SVG-20010904/DTD/svg10.dtd">
<svg version="1.0" xmlns="http://www.w3.org/2000/svg"
 width="50.000000pt" height="50.000000pt" viewBox="0 0 50.000000 50.000000"
 preserveAspectRatio="xMidYMid meet">

<g transform="translate(0.000000,50.000000) scale(0.100000,-0.100000)"
fill="#FF0000" stroke="none">
<path d="M155 456 c-60 -28 -87 -56 -114 -116 -36 -79 -19 -183 42 -249 33
-36 115 -71 167 -71 52 0 134 35 167 71 34 37 63 110 63 159 0 52 -35 134 -71
167 -37 34 -110 63 -159 63 -27 0 -65 -10 -95 -24z m150 -81 c50 -49 15 -135
-55 -135 -41 0 -80 39 -80 80 0 41 39 80 80 80 19 0 40 -9 55 -25z m-101 -143
c57 -26 117 -3 137 52 11 31 14 33 42 25 45 -13 77 -37 77 -59 0 -22 -47 -56
-92 -65 -15 -4 -28 -13 -28 -22 0 -27 -56 -73 -90 -73 -34 0 -90 46 -90 73 0
9 -13 18 -28 22 -44 9 -92 43 -92 64 0 23 19 40 67 56 l37 13 17 -37 c9 -20
28 -42 43 -49z"/>
<path d="M220 345 c-15 -18 -10 -45 13 -59 34 -22 73 27 47 59 -16 19 -44 19
-60 0z"/>
</g>
</svg>
