<?xml version="1.0" standalone="no"?>
<!DOCTYPE svg PUBLIC "-//W3C//DTD SVG 20010904//EN"
 "http://www.w3.org/TR/2001/REC-SVG-20010904/DTD/svg10.dtd">
<svg version="1.0" xmlns="http://www.w3.org/2000/svg"
 width="512.000000pt" height="512.000000pt" viewBox="0 0 512.000000 512.000000"
 preserveAspectRatio="xMidYMid meet">

<g transform="translate(0.000000,512.000000) scale(0.100000,-0.100000)"
fill="#FF0000" stroke="none">
<path d="M1431 4191 c-11 -11 -25 -37 -30 -58 -75 -274 -76 -278 -106 -283
-15 -3 -36 -16 -46 -30 -12 -17 -113 -477 -313 -1427 -163 -772 -296 -1410
-296 -1418 0 -9 11 -27 25 -40 l24 -25 1871 0 1871 0 24 25 c14 13 25 31 25
40 0 8 -133 646 -296 1418 -200 948 -301 1410 -313 1427 -10 14 -31 27 -46 30
-30 5 -31 9 -106 283 -5 21 -19 47 -30 58 -19 19 -42 19 -1129 19 -1087 0
-1110 0 -1129 -19z m2173 -234 c14 -51 26 -96 26 -100 0 -4 -481 -7 -1070 -7
-588 0 -1070 3 -1070 7 0 4 12 49 26 100 l27 93 1017 0 1017 0 27 -93z m146
-271 c0 -3 124 -591 275 -1307 151 -715 275 -1303 275 -1305 0 -2 -783 -4
-1740 -4 -957 0 -1740 2 -1740 4 0 2 124 590 275 1306 151 716 275 1303 275
1306 0 2 535 4 1190 4 655 0 1190 -2 1190 -4z"/>
<path d="M1817 3580 c-100 -25 -183 -97 -218 -188 -63 -169 43 -364 217 -400
33 -7 41 -15 71 -71 96 -181 261 -312 463 -367 90 -25 300 -25 390 0 198 53
366 186 459 361 36 67 44 75 86 75 43 0 124 41 167 85 113 114 116 303 7 415
-181 186 -493 78 -516 -178 -8 -91 16 -159 82 -230 l54 -59 -37 -63 c-178
-302 -631 -362 -895 -119 -34 31 -77 81 -95 112 l-33 54 65 65 c53 53 67 75
81 123 32 109 4 226 -73 302 -67 67 -189 104 -275 83z m139 -175 c62 -40 82
-130 43 -194 -26 -43 -39 -28 -39 45 0 70 -27 104 -80 104 -30 0 -43 -6 -60
-27 -20 -25 -22 -36 -17 -96 7 -77 -3 -83 -40 -27 -83 121 70 276 193 195z
m1360 0 c58 -38 81 -124 49 -185 -13 -25 -63 -70 -79 -70 -4 0 -4 35 0 78 6
69 4 80 -16 105 -17 21 -30 27 -60 27 -53 0 -80 -34 -80 -104 -1 -47 -2 -49
-15 -32 -23 30 -19 97 8 137 44 66 130 86 193 44z"/>
<path d="M2452 2379 c-137 -24 -298 -123 -378 -231 -91 -123 -129 -239 -127
-388 7 -540 665 -806 1047 -424 328 328 189 887 -256 1026 -73 22 -212 31
-286 17z m200 -160 c134 -28 254 -121 313 -243 19 -39 37 -83 41 -98 l6 -28
-85 0 -86 0 -20 44 c-41 94 -154 166 -261 166 -107 0 -220 -72 -261 -166 l-20
-44 -84 0 c-48 0 -85 4 -85 10 0 5 10 35 21 67 80 214 301 338 521 292z m-31
-334 c117 -61 71 -245 -61 -245 -68 0 -130 61 -130 128 0 98 104 161 191 117z
m-321 -240 c45 -93 159 -165 260 -165 101 0 215 72 260 165 l22 45 85 0 85 0
-6 -27 c-29 -118 -128 -243 -236 -297 -184 -92 -388 -60 -531 83 -57 57 -108
145 -125 214 l-6 27 85 0 85 0 22 -45z"/>
</g>
</svg>
