<?xml version="1.0" standalone="no"?>
<!DOCTYPE svg PUBLIC "-//W3C//DTD SVG 20010904//EN"
 "http://www.w3.org/TR/2001/REC-SVG-20010904/DTD/svg10.dtd">
<svg version="1.0" xmlns="http://www.w3.org/2000/svg"
 width="50.000000pt" height="50.000000pt" viewBox="0 0 50.000000 50.000000"
 preserveAspectRatio="xMidYMid meet">

<g transform="translate(0.000000,50.000000) scale(0.100000,-0.100000)"
fill="#FF0000" stroke="none">
<path d="M155 456 c-60 -28 -87 -56 -114 -116 -34 -75 -31 -80 47 -80 64 1 68
2 87 33 11 17 32 36 48 41 38 14 78 -2 102 -41 19 -31 23 -32 88 -33 78 0 81
5 43 85 -28 60 -56 87 -116 114 -60 27 -123 26 -185 -3z"/>
<path d="M216 284 c-31 -30 -9 -84 34 -84 24 0 50 26 50 50 0 24 -26 50 -50
50 -10 0 -26 -7 -34 -16z"/>
<path d="M20 223 c1 -26 38 -104 63 -132 33 -36 115 -71 167 -71 49 0 122 29
159 63 26 24 71 112 71 140 0 14 -10 17 -67 17 -65 -1 -69 -2 -88 -33 -39 -61
-111 -61 -150 0 -19 31 -23 32 -87 33 -58 0 -68 -3 -68 -17z"/>
</g>
</svg>
