<?xml version="1.0" standalone="no"?>
<!DOCTYPE svg PUBLIC "-//W3C//DTD SVG 20010904//EN"
 "http://www.w3.org/TR/2001/REC-SVG-20010904/DTD/svg10.dtd">
<svg version="1.0" xmlns="http://www.w3.org/2000/svg"
 width="48.000000pt" height="48.000000pt" viewBox="0 0 48.000000 48.000000"
 preserveAspectRatio="xMidYMid meet">

<g transform="translate(0.000000,48.000000) scale(0.100000,-0.100000)"
fill="#FF0000" stroke="none">
<path d="M122 398 c-15 -15 -16 -148 -2 -148 22 0 8 -19 -19 -25 -39 -8 -58
-33 -58 -77 -1 -62 20 -72 154 -76 74 -3 119 0 126 7 6 6 28 11 49 11 43 0 78
27 78 60 0 30 -36 60 -71 60 -33 0 -74 30 -51 38 16 5 16 134 0 150 -8 8 -46
12 -103 12 -57 0 -95 -4 -103 -12z m188 -68 l0 -60 -70 0 -70 0 0 60 0 60 70
0 70 0 0 -60z m0 -180 l0 -60 -70 0 -70 0 0 60 0 60 70 0 70 0 0 -60z m-174
15 c14 -13 14 -17 0 -31 -15 -14 -17 -14 -32 0 -12 13 -13 18 -2 30 16 19 16
19 34 1z m274 -15 c0 -13 -7 -20 -20 -20 -13 0 -20 7 -20 20 0 13 7 20 20 20
13 0 20 -7 20 -20z"/>
</g>
</svg>
