<?xml version="1.0" standalone="no"?>
<!DOCTYPE svg PUBLIC "-//W3C//DTD SVG 20010904//EN"
 "http://www.w3.org/TR/2001/REC-SVG-20010904/DTD/svg10.dtd">
<svg version="1.0" xmlns="http://www.w3.org/2000/svg"
 width="50.000000pt" height="50.000000pt" viewBox="0 0 50.000000 50.000000"
 preserveAspectRatio="xMidYMid meet">

<g transform="translate(0.000000,50.000000) scale(0.100000,-0.100000)"
fill="#FF0000" stroke="none">
<path d="M185 476 c-69 -31 -104 -103 -91 -189 11 -70 127 -277 156 -277 16 0
118 165 140 227 36 100 19 173 -52 226 -33 25 -113 32 -153 13z m133 -26 c99
-61 92 -180 -21 -347 -23 -35 -45 -63 -48 -63 -4 0 -25 28 -47 62 -86 132
-111 235 -73 296 43 68 125 91 189 52z"/>
<path d="M201 416 c-87 -48 -50 -186 49 -186 51 0 100 49 100 99 0 75 -83 124
-149 87z m104 -31 c14 -13 25 -29 25 -35 0 -17 -26 -11 -45 10 -10 11 -26 20
-35 20 -9 0 -25 -9 -35 -20 -19 -21 -45 -27 -45 -10 0 23 50 60 80 60 19 0 40
-9 55 -25z m-30 -55 c0 -18 -6 -26 -23 -28 -13 -2 -25 3 -28 12 -10 26 4 48
28 44 17 -2 23 -10 23 -28z m-60 -30 c10 -11 26 -20 35 -20 9 0 25 9 35 20 19
21 45 27 45 10 0 -23 -50 -60 -80 -60 -30 0 -80 37 -80 60 0 17 26 11 45 -10z"/>
</g>
</svg>
