<?xml version="1.0" standalone="no"?>
<!DOCTYPE svg PUBLIC "-//W3C//DTD SVG 20010904//EN"
 "http://www.w3.org/TR/2001/REC-SVG-20010904/DTD/svg10.dtd">
<svg version="1.0" xmlns="http://www.w3.org/2000/svg"
 width="512.000000pt" height="512.000000pt" viewBox="0 0 512.000000 512.000000"
 preserveAspectRatio="xMidYMid meet">

<g transform="translate(0.000000,512.000000) scale(0.100000,-0.100000)"
fill="#FF0000" stroke="none">
<path d="M336 5034 c-92 -29 -176 -143 -176 -239 0 -83 65 -186 144 -228 64
-34 165 -31 233 7 87 48 139 143 130 237 -15 166 -174 273 -331 223z m139
-177 c35 -30 37 -88 4 -123 -52 -55 -149 -16 -149 61 0 75 87 112 145 62z"/>
<path d="M2525 4779 c-86 -27 -123 -127 -76 -205 20 -32 74 -64 110 -64 62 0
125 54 137 115 18 96 -78 183 -171 154z"/>
<path d="M4573 4696 l-28 -24 0 -155 c0 -151 1 -156 24 -181 30 -32 78 -35
112 -7 23 18 24 25 27 175 l3 156 -30 30 c-36 37 -70 38 -108 6z"/>
<path d="M4180 4297 c-52 -26 -61 -95 -18 -134 17 -15 41 -19 155 -21 74 -2
146 -1 159 2 60 16 84 89 45 137 -18 23 -25 24 -168 27 -107 2 -155 -1 -173
-11z"/>
<path d="M4755 4298 c-55 -32 -61 -92 -13 -133 31 -26 31 -26 180 -23 l150 3
24 28 c32 38 31 72 -5 108 l-29 29 -144 0 c-89 0 -151 -5 -163 -12z"/>
<path d="M4569 4114 c-23 -25 -24 -30 -24 -180 0 -140 2 -155 20 -173 11 -12
34 -23 52 -27 27 -5 37 -1 63 25 l31 31 -3 156 c-3 150 -4 157 -27 175 -34 28
-82 25 -112 -7z"/>
<path d="M1139 4051 c-41 -42 -38 -72 15 -129 l44 -47 -44 -47 c-53 -57 -57
-87 -14 -130 26 -25 36 -29 63 -24 18 4 49 24 71 46 l40 39 47 -44 c58 -54 88
-58 130 -16 42 42 38 72 -16 130 l-44 47 39 40 c22 22 42 53 46 71 5 27 1 37
-24 63 -43 43 -73 39 -130 -14 l-47 -44 -47 44 c-57 53 -87 56 -129 15z"/>
<path d="M2494 3734 c-448 -61 -873 -294 -1161 -637 -429 -512 -547 -1192
-316 -1821 218 -595 732 -1041 1348 -1172 533 -112 1078 14 1510 351 88 69
266 249 332 335 554 731 497 1745 -135 2400 -75 78 -92 90 -120 90 -44 0 -82
-38 -82 -81 0 -25 13 -45 63 -99 148 -156 238 -282 321 -449 84 -167 147 -389
162 -571 l7 -80 -519 2 -519 3 -16 61 c-78 289 -329 484 -624 484 -170 0 -328
-65 -449 -185 -100 -99 -137 -166 -192 -352 -3 -10 -115 -13 -520 -13 l-517 0
7 83 c15 178 70 374 157 557 218 458 655 800 1159 908 283 61 551 50 843 -34
65 -19 125 -34 133 -34 28 0 64 47 64 85 0 49 -25 70 -122 99 -266 81 -553
106 -814 70z m355 -1359 c222 -53 371 -240 372 -466 0 -196 -99 -351 -281
-438 -73 -35 -78 -36 -195 -36 -117 0 -122 1 -195 36 -122 58 -216 157 -255
269 -96 273 61 566 341 634 78 19 135 19 213 1z m-745 -547 c2 -7 10 -44 19
-81 28 -116 73 -192 167 -288 69 -70 101 -94 170 -127 88 -43 204 -72 285 -72
81 0 197 29 285 72 167 81 308 261 344 438 l13 65 518 3 518 2 -7 -77 c-67
-739 -610 -1345 -1349 -1505 -87 -19 -134 -22 -317 -22 -236 -1 -334 13 -525
76 -625 203 -1097 797 -1151 1446 l-7 82 517 0 c405 0 517 -3 520 -12z"/>
<path d="M2639 2217 c-57 -22 -106 -55 -144 -99 -107 -126 -97 -326 22 -444
63 -61 134 -89 228 -89 96 0 158 25 223 88 159 154 126 412 -67 520 -47 27
-67 31 -140 34 -55 2 -99 -2 -122 -10z m177 -168 c134 -64 112 -258 -33 -298
-86 -24 -185 43 -198 132 -10 68 24 133 85 165 55 27 92 28 146 1z"/>
<path d="M3590 3507 c-37 -19 -56 -60 -45 -94 13 -37 127 -113 170 -113 61 0
102 81 64 126 -19 24 -111 82 -140 89 -13 3 -35 -1 -49 -8z"/>
<path d="M4803 3044 c-125 -62 -80 -254 59 -254 87 0 145 63 135 145 -10 98
-107 151 -194 109z"/>
<path d="M142 3004 c-238 -118 -155 -473 111 -474 100 0 174 44 222 131 73
134 8 304 -134 355 -61 22 -140 17 -199 -12z m167 -160 c64 -54 24 -154 -61
-154 -81 0 -111 126 -40 164 40 22 67 19 101 -10z"/>
</g>
</svg>
